<svg xmlns="http://www.w3.org/2000/svg" width="530" height="367" viewBox="0 0 530 367" fill="none"><path d="M75.5947 316.989H66.9595V317.33H75.5947V316.989Z" fill="#EBEBEB"></path><path d="M141.77 250.3H45.6641V256.519H141.77V250.3Z" fill="#EBEBEB"></path><path d="M140.174 256.244H49.3613V256.517H140.174V256.244Z" fill="#EBEBEB"></path><path d="M358.102 250.3H261.996V256.519H358.102V250.3Z" fill="#EBEBEB"></path><path d="M356.506 256.244H265.692V256.517H356.506V256.244Z" fill="#EBEBEB"></path><path d="M466.266 250.3H370.16V256.519H466.266V250.3Z" fill="#EBEBEB"></path><path d="M464.658 256.244H373.845V256.517H464.658V256.244Z" fill="#EBEBEB"></path><path d="M113.41 177.336H71.2158V250.286H113.41V177.336Z" fill="#EBEBEB"></path><path d="M105.32 167.133V185.435H101.991H82.6469H79.3184V167.133H105.32Z" fill="#EBEBEB"></path><path d="M105.306 185.436H110.708V180.035H105.306V185.436Z" fill="#FAFAFA"></path><path d="M94.8562 185.436H100.258V180.035H94.8562V185.436Z" fill="#FAFAFA"></path><path d="M84.3933 185.436H89.7954V180.035H84.3933V185.436Z" fill="#FAFAFA"></path><path d="M73.9304 185.436H79.3325V180.035H73.9304V185.436Z" fill="#F0F0F0"></path><path d="M105.306 195.256H110.708V189.855H105.306V195.256Z" fill="#F0F0F0"></path><path d="M94.8562 195.256H100.258V189.855H94.8562V195.256Z" fill="#F0F0F0"></path><path d="M84.3933 195.256H89.7954V189.855H84.3933V195.256Z" fill="#FAFAFA"></path><path d="M73.9304 195.256H79.3325V189.855H73.9304V195.256Z" fill="#FAFAFA"></path><path d="M105.306 205.062H110.708V199.662H105.306V205.062Z" fill="#F0F0F0"></path><path d="M94.8562 205.062H100.258V199.662H94.8562V205.062Z" fill="#FAFAFA"></path><path d="M84.3933 205.062H89.7954V199.662H84.3933V205.062Z" fill="#FAFAFA"></path><path d="M94.8562 176.954H100.258V171.553H94.8562V176.954Z" fill="#FAFAFA"></path><path d="M84.3933 176.954H89.7954V171.553H84.3933V176.954Z" fill="#F0F0F0"></path><path d="M73.9304 205.062H79.3325V199.662H73.9304V205.062Z" fill="#F0F0F0"></path><path d="M105.306 214.881H110.708V209.48H105.306V214.881Z" fill="#FAFAFA"></path><path d="M94.8562 214.881H100.258V209.48H94.8562V214.881Z" fill="#F0F0F0"></path><path d="M84.3933 214.881H89.7954V209.48H84.3933V214.881Z" fill="#F0F0F0"></path><path d="M73.9304 214.881H79.3325V209.48H73.9304V214.881Z" fill="#FAFAFA"></path><path d="M105.306 224.686H110.708V219.285H105.306V224.686Z" fill="#F0F0F0"></path><path d="M94.8562 224.686H100.258V219.285H94.8562V224.686Z" fill="#FAFAFA"></path><path d="M84.3933 224.686H89.7954V219.285H84.3933V224.686Z" fill="#FAFAFA"></path><path d="M73.9304 224.686H79.3325V219.285H73.9304V224.686Z" fill="#F0F0F0"></path><path d="M105.306 234.493H110.708V229.092H105.306V234.493Z" fill="#F0F0F0"></path><path d="M94.8562 234.493H100.258V229.092H94.8562V234.493Z" fill="#FAFAFA"></path><path d="M84.3933 234.493H89.7954V229.092H84.3933V234.493Z" fill="#F0F0F0"></path><path d="M73.9304 234.493H79.3325V229.092H73.9304V234.493Z" fill="#FAFAFA"></path><path d="M105.306 244.312H110.708V238.912H105.306V244.312Z" fill="#FAFAFA"></path><path d="M94.8562 244.312H100.258V238.912H94.8562V244.312Z" fill="#FAFAFA"></path><path d="M84.3933 244.312H89.7954V238.912H84.3933V244.312Z" fill="#F0F0F0"></path><path d="M73.9304 244.312H79.3325V238.912H73.9304V244.312Z" fill="#F0F0F0"></path><path d="M351.308 177.336H309.114V250.286H351.308V177.336Z" fill="#EBEBEB"></path><path d="M343.219 167.133V185.435H339.89H320.546H317.218V167.133H343.219Z" fill="#EBEBEB"></path><path d="M343.205 185.436H348.607V180.035H343.205V185.436Z" fill="#FAFAFA"></path><path d="M332.741 185.436H338.144V180.035H332.741V185.436Z" fill="#FAFAFA"></path><path d="M322.279 185.436H327.681V180.035H322.279V185.436Z" fill="#FAFAFA"></path><path d="M311.829 185.436H317.231V180.035H311.829V185.436Z" fill="#F0F0F0"></path><path d="M343.205 195.256H348.607V189.855H343.205V195.256Z" fill="#F0F0F0"></path><path d="M332.741 195.256H338.144V189.855H332.741V195.256Z" fill="#F0F0F0"></path><path d="M322.279 195.256H327.681V189.855H322.279V195.256Z" fill="#FAFAFA"></path><path d="M311.829 195.256H317.231V189.855H311.829V195.256Z" fill="#FAFAFA"></path><path d="M343.205 205.062H348.607V199.662H343.205V205.062Z" fill="#F0F0F0"></path><path d="M332.741 205.062H338.144V199.662H332.741V205.062Z" fill="#FAFAFA"></path><path d="M322.279 205.062H327.681V199.662H322.279V205.062Z" fill="#FAFAFA"></path><path d="M332.741 176.954H338.144V171.553H332.741V176.954Z" fill="#FAFAFA"></path><path d="M322.279 176.954H327.681V171.553H322.279V176.954Z" fill="#F0F0F0"></path><path d="M311.829 205.062H317.231V199.662H311.829V205.062Z" fill="#F0F0F0"></path><path d="M343.205 214.881H348.607V209.48H343.205V214.881Z" fill="#FAFAFA"></path><path d="M332.741 214.881H338.144V209.48H332.741V214.881Z" fill="#F0F0F0"></path><path d="M322.279 214.881H327.681V209.48H322.279V214.881Z" fill="#F0F0F0"></path><path d="M311.829 214.881H317.231V209.48H311.829V214.881Z" fill="#FAFAFA"></path><path d="M343.205 224.686H348.607V219.285H343.205V224.686Z" fill="#F0F0F0"></path><path d="M332.741 224.686H338.144V219.285H332.741V224.686Z" fill="#FAFAFA"></path><path d="M322.279 224.686H327.681V219.285H322.279V224.686Z" fill="#FAFAFA"></path><path d="M311.829 224.686H317.231V219.285H311.829V224.686Z" fill="#F0F0F0"></path><path d="M343.205 234.493H348.607V229.092H343.205V234.493Z" fill="#F0F0F0"></path><path d="M332.741 234.493H338.144V229.092H332.741V234.493Z" fill="#FAFAFA"></path><path d="M322.279 234.493H327.681V229.092H322.279V234.493Z" fill="#F0F0F0"></path><path d="M311.829 234.493H317.231V229.092H311.829V234.493Z" fill="#FAFAFA"></path><path d="M343.205 244.312H348.607V238.912H343.205V244.312Z" fill="#FAFAFA"></path><path d="M332.741 244.312H338.144V238.912H332.741V244.312Z" fill="#FAFAFA"></path><path d="M322.279 244.312H327.681V238.912H322.279V244.312Z" fill="#F0F0F0"></path><path d="M311.829 244.312H317.231V238.912H311.829V244.312Z" fill="#F0F0F0"></path><path d="M418.343 203.903H380.542V250.273H418.343V203.903Z" fill="#F0F0F0"></path><path d="M383.83 209.044H392.629H395.043H397.458V213.885H395.043H392.629H383.83V209.044Z" fill="#E6E6E6"></path><path d="M383.83 218.427H392.629H395.043H397.458V223.255H395.043H392.629H383.83V218.427Z" fill="#FAFAFA"></path><path d="M383.83 227.796H392.629H395.043H397.458V232.624H395.043H392.629H383.83V227.796Z" fill="#E6E6E6"></path><path d="M383.83 237.165H392.629H396.366H397.458V242.007H396.366H392.629H383.83V237.165Z" fill="#FAFAFA"></path><path d="M401.414 209.044H410.213H412.628H415.042V213.885H412.628H410.213H401.414V209.044Z" fill="#FAFAFA"></path><path d="M401.414 218.427H410.213H413.623H415.042V223.255H413.623H410.213H401.414V218.427Z" fill="#FAFAFA"></path><path d="M401.414 227.796H410.213H412.628H415.042V232.624H412.628H410.213H401.414V227.796Z" fill="#E6E6E6"></path><path d="M401.414 237.165H410.213H412.628H415.042V242.007H412.628H410.213H401.414V237.165Z" fill="#FAFAFA"></path><path d="M458.436 200.151H424.086V250.271H458.436V200.151Z" fill="#F0F0F0"></path><path d="M456.24 202.36H443.321V214.744H456.24V202.36Z" fill="#FAFAFA"></path><path d="M439.202 202.36H426.283V214.744H439.202V202.36Z" fill="#FAFAFA"></path><path d="M456.24 218.332H443.321V230.715H456.24V218.332Z" fill="#FAFAFA"></path><path d="M439.202 218.332H426.283V230.715H439.202V218.332Z" fill="#FAFAFA"></path><path d="M456.24 234.302H443.321V246.685H456.24V234.302Z" fill="#FAFAFA"></path><path d="M439.202 234.302H426.283V246.685H439.202V234.302Z" fill="#FAFAFA"></path><path d="M470.455 260.718C470.66 259.354 475.257 227.591 466.035 216.612C465.114 215.457 463.949 214.52 462.624 213.867C461.299 213.214 459.846 212.862 458.369 212.835C439.734 212.398 437.183 227.373 437.169 227.523L439.366 227.864C439.448 227.318 441.658 214.662 458.314 215.058C459.476 215.074 460.62 215.351 461.661 215.868C462.703 216.385 463.614 217.129 464.33 218.044C472.924 228.259 468.3 260.077 468.259 260.391L470.455 260.718Z" fill="#EBEBEB"></path><path d="M471.587 259.273L473.797 259.205C473.797 258.904 473.06 229.91 487.357 223.923C501.353 218.058 507.656 230.114 507.915 230.633L509.906 229.637C509.825 229.487 502.444 215.194 486.497 221.877C470.796 228.491 471.546 258.018 471.587 259.273Z" fill="#3DB390"></path><path d="M471.519 261.551C471.519 261.088 471.655 215.182 480.59 201.816C489.185 188.942 503.031 194.997 503.618 195.27L504.532 193.252C504.368 193.17 488.393 186.119 478.749 200.589C469.431 214.554 469.295 259.628 469.295 261.551H471.519Z" fill="#3DB390"></path><path d="M455.696 213.94C455.696 213.94 463.881 216.94 461.425 224.018C458.97 231.096 433.269 242.743 433.269 242.743C433.269 242.743 422.505 232.883 432.396 216.831C442.286 200.779 455.477 208.88 455.696 213.94Z" fill="#84CDB3"></path><path d="M481 199.402C481 199.402 475.216 198.788 475.68 195.31C476.144 191.832 498.134 182.736 511.148 197.383C511.148 197.383 502.841 211.649 490.836 211.826C478.831 212.003 481 199.402 481 199.402Z" fill="#84CDB3"></path><path d="M486.921 222.9C486.921 222.9 482.938 219.681 487.235 218.113C491.532 216.545 512.649 216.995 512.868 237.888C512.868 237.888 488.313 241.98 485.243 234.015C482.174 226.05 486.921 222.9 486.921 222.9Z" fill="#84CDB3"></path><path d="M451.33 303.31H489.486L493.592 261.55H447.21L451.33 303.31Z" fill="#2E4E8D"></path><path d="M445.177 266.146H495.638V256.926H445.177V266.146Z" fill="#2E4E8D"></path><path d="M265.365 367.001C411.445 367.001 529.865 360.089 529.865 351.562C529.865 343.036 411.445 336.124 265.365 336.124C119.286 336.124 0.865234 343.036 0.865234 351.562C0.865234 360.089 119.286 367.001 265.365 367.001Z" fill="#F5F5F5"></path><path d="M408.203 4.99707H91.9731V237.336H408.203V4.99707Z" fill="#E3FFF5"></path><path d="M408.203 4.99707H96.9731C94.2117 4.99707 91.9731 7.23564 91.9731 9.99707V19.2216H408.203V4.99707Z" fill="#3DB390"></path><path opacity="0.7" d="M399.458 15.9478C401.575 15.9478 403.292 14.232 403.292 12.1155C403.292 9.99898 401.575 8.2832 399.458 8.2832C397.341 8.2832 395.625 9.99898 395.625 12.1155C395.625 14.232 397.341 15.9478 399.458 15.9478Z" fill="white"></path><path opacity="0.7" d="M388.273 15.9478C390.39 15.9478 392.106 14.232 392.106 12.1155C392.106 9.99898 390.39 8.2832 388.273 8.2832C386.156 8.2832 384.439 9.99898 384.439 12.1155C384.439 14.232 386.156 15.9478 388.273 15.9478Z" fill="white"></path><path opacity="0.7" d="M377.086 15.9478C379.203 15.9478 380.92 14.232 380.92 12.1155C380.92 9.99898 379.203 8.2832 377.086 8.2832C374.969 8.2832 373.253 9.99898 373.253 12.1155C373.253 14.232 374.969 15.9478 377.086 15.9478Z" fill="white"></path><path d="M359.892 37.9785H231.931V121.931H356.892C358.549 121.931 359.892 120.588 359.892 118.931V37.9785Z" fill="#B2E6D6"></path><path d="M356.779 31.1064H234.931C233.274 31.1064 231.931 32.4496 231.931 34.1064V45.331H359.779V34.1064C359.779 32.4496 358.436 31.1064 356.779 31.1064Z" fill="#83CCB7"></path><path opacity="0.7" d="M351.048 42.0572C353.165 42.0572 354.882 40.3414 354.882 38.2249C354.882 36.1084 353.165 34.3926 351.048 34.3926C348.931 34.3926 347.215 36.1084 347.215 38.2249C347.215 40.3414 348.931 42.0572 351.048 42.0572Z" fill="white"></path><path opacity="0.7" d="M339.861 42.0572C341.978 42.0572 343.695 40.3414 343.695 38.2249C343.695 36.1084 341.978 34.3926 339.861 34.3926C337.744 34.3926 336.028 36.1084 336.028 38.2249C336.028 40.3414 337.744 42.0572 339.861 42.0572Z" fill="white"></path><path opacity="0.7" d="M332.495 38.2249C332.495 38.9829 332.27 39.7238 331.849 40.354C331.428 40.9843 330.829 41.4755 330.129 41.7655C329.428 42.0556 328.658 42.1315 327.914 41.9836C327.171 41.8357 326.487 41.4707 325.951 40.9348C325.415 40.3988 325.05 39.716 324.902 38.9726C324.754 38.2292 324.83 37.4586 325.12 36.7584C325.411 36.0581 325.902 35.4596 326.532 35.0385C327.163 34.6174 327.904 34.3926 328.662 34.3926C329.166 34.3908 329.665 34.4887 330.131 34.6807C330.597 34.8726 331.02 35.1548 331.377 35.511C331.733 35.8673 332.015 36.2905 332.207 36.7562C332.399 37.222 332.497 37.7212 332.495 38.2249V38.2249Z" fill="white"></path><path opacity="0.2" d="M234.165 102.051L269.306 80.9528L294.939 94.9455L334.2 70.165L357.896 87.8264V120.053H234.165V102.051Z" fill="white"></path><path d="M270.016 67.0008C270.016 68.8889 269.456 70.7347 268.407 72.3046C267.357 73.8746 265.866 75.0982 264.121 75.8208C262.376 76.5433 260.456 76.7324 258.604 76.364C256.751 75.9957 255.05 75.0864 253.714 73.7513C252.379 72.4162 251.469 70.7151 251.101 68.8632C250.733 67.0114 250.922 65.0918 251.644 63.3474C252.367 61.603 253.591 60.112 255.161 59.063C256.732 58.014 258.578 57.4541 260.467 57.4541C262.999 57.4541 265.428 58.4599 267.219 60.2503C269.01 62.0406 270.016 64.4688 270.016 67.0008V67.0008Z" fill="white"></path><path d="M389.883 179.898H261.921V262.85C261.921 264.506 263.265 265.85 264.921 265.85H389.883V179.898Z" fill="white"></path><path d="M386.417 174.717H264.921C263.265 174.717 261.921 176.06 261.921 177.717V188.941H389.417V177.717C389.417 176.06 388.074 174.717 386.417 174.717Z" fill="#83CCB7"></path><path opacity="0.7" d="M384.976 181.834C384.976 182.592 384.751 183.333 384.33 183.963C383.909 184.594 383.31 185.085 382.61 185.375C381.909 185.665 381.139 185.741 380.395 185.593C379.651 185.445 378.968 185.08 378.432 184.544C377.896 184.008 377.531 183.325 377.383 182.582C377.235 181.838 377.311 181.068 377.601 180.368C377.892 179.667 378.383 179.069 379.013 178.648C379.644 178.227 380.385 178.002 381.143 178.002C382.16 178.002 383.135 178.406 383.853 179.124C384.572 179.843 384.976 180.818 384.976 181.834Z" fill="white"></path><path opacity="0.7" d="M373.776 181.834C373.776 182.592 373.551 183.333 373.13 183.963C372.709 184.594 372.11 185.085 371.41 185.375C370.709 185.665 369.938 185.741 369.195 185.593C368.451 185.445 367.768 185.08 367.232 184.544C366.696 184.008 366.331 183.325 366.183 182.582C366.035 181.838 366.111 181.068 366.401 180.368C366.691 179.667 367.183 179.069 367.813 178.648C368.443 178.227 369.185 178.002 369.943 178.002C370.959 178.002 371.934 178.406 372.653 179.124C373.372 179.843 373.776 180.818 373.776 181.834Z" fill="white"></path><path opacity="0.7" d="M362.59 181.834C362.59 182.592 362.366 183.333 361.944 183.963C361.523 184.594 360.925 185.085 360.224 185.375C359.524 185.665 358.753 185.741 358.009 185.593C357.266 185.445 356.583 185.08 356.047 184.544C355.51 184.008 355.145 183.325 354.997 182.582C354.85 181.838 354.925 181.068 355.216 180.368C355.506 179.667 355.997 179.069 356.627 178.648C357.258 178.227 357.999 178.002 358.757 178.002C359.774 178.002 360.749 178.406 361.468 179.124C362.187 179.843 362.59 180.818 362.59 181.834V181.834Z" fill="white"></path><path d="M378.886 201.886H273.918V203.885H378.886V201.886Z" fill="#DDE7E3"></path><path d="M378.886 208.882H273.918V210.881H378.886V208.882Z" fill="#DDE7E3"></path><path d="M378.886 215.878H273.918V217.877H378.886V215.878Z" fill="#DDE7E3"></path><path d="M378.886 222.874H273.918V224.873H378.886V222.874Z" fill="#DDE7E3"></path><path d="M378.886 229.87H273.918V231.869H378.886V229.87Z" fill="#DDE7E3"></path><path d="M378.741 237.343H273.495V238.707H378.741V237.343Z" fill="#DDE7E3"></path><path d="M378.741 244.367H273.495V245.732H378.741V244.367Z" fill="#DDE7E3"></path><path d="M378.741 251.39H273.495V252.754H378.741V251.39Z" fill="#DDE7E3"></path><path d="M243.927 121.93H115.965V201.883C115.965 203.539 117.308 204.883 118.965 204.883H240.927C242.584 204.883 243.927 203.539 243.927 201.883V121.93Z" fill="#B2E6D6"></path><path d="M165.972 158.609L146.3 165.96L165.972 173.311V179.23L139.698 169.043V162.878L165.972 152.69V158.609Z" fill="white"></path><path d="M186.707 137.919H193.064L174.279 191.667H167.909L186.707 137.919Z" fill="white"></path><path d="M220.73 162.878V169.043L194.429 179.23V173.311L214.1 165.96L194.429 158.609V152.69L220.73 162.878Z" fill="white"></path><path d="M240.927 113.935H118.965C117.308 113.935 115.965 115.278 115.965 116.935V127.927H243.927V116.935C243.927 115.278 242.584 113.935 240.927 113.935Z" fill="#83CCB7"></path><path opacity="0.7" d="M239.024 120.872C239.024 121.631 238.799 122.372 238.377 123.003C237.955 123.633 237.356 124.125 236.655 124.414C235.953 124.704 235.182 124.779 234.438 124.63C233.694 124.481 233.011 124.115 232.475 123.577C231.94 123.04 231.576 122.356 231.429 121.612C231.283 120.867 231.361 120.096 231.653 119.396C231.945 118.696 232.439 118.099 233.071 117.679C233.703 117.26 234.446 117.037 235.204 117.04C235.707 117.04 236.205 117.139 236.669 117.332C237.134 117.525 237.555 117.807 237.91 118.163C238.265 118.519 238.546 118.942 238.737 119.407C238.928 119.872 239.026 120.37 239.024 120.872V120.872Z" fill="white"></path><path opacity="0.7" d="M227.837 120.872C227.837 121.63 227.612 122.371 227.191 123.001C226.77 123.632 226.171 124.123 225.471 124.413C224.77 124.703 223.999 124.779 223.256 124.631C222.512 124.483 221.829 124.118 221.293 123.582C220.757 123.046 220.392 122.363 220.244 121.62C220.096 120.877 220.172 120.106 220.462 119.406C220.752 118.706 221.244 118.107 221.874 117.686C222.504 117.265 223.246 117.04 224.004 117.04C225.02 117.04 225.995 117.444 226.714 118.162C227.433 118.881 227.837 119.856 227.837 120.872V120.872Z" fill="white"></path><path opacity="0.7" d="M216.651 120.872C216.651 121.63 216.426 122.371 216.005 123.001C215.583 123.632 214.985 124.123 214.284 124.413C213.584 124.703 212.813 124.779 212.069 124.631C211.326 124.483 210.643 124.118 210.107 123.582C209.571 123.046 209.205 122.363 209.058 121.62C208.91 120.877 208.986 120.106 209.276 119.406C209.566 118.706 210.057 118.107 210.688 117.686C211.318 117.265 212.059 117.04 212.817 117.04C213.834 117.04 214.809 117.444 215.528 118.162C216.247 118.881 216.651 119.856 216.651 120.872V120.872Z" fill="white"></path><path d="M405.124 23.2373C408.794 30.0564 416.474 41.6897 423.786 42.2215C423.786 42.2215 427.074 49.477 416.201 58.4236C404.251 68.2703 405.601 57.1962 405.601 57.1962C410.84 50.268 406.693 45.5629 401.809 41.9488L405.124 23.2373Z" fill="#F4B1B1"></path><path d="M405.875 17.1014C409.64 26.6481 412.341 32.1033 409.858 39.0315C406.147 49.5055 392.683 50.6102 386.135 42.3592C380.228 34.94 375.058 20.5382 382.438 12.6008C384.056 10.84 386.097 9.52195 388.368 8.77202C390.638 8.02209 393.063 7.86516 395.412 8.31615C397.76 8.76715 399.955 9.81107 401.786 11.3487C403.617 12.8864 405.025 14.8667 405.875 17.1014Z" fill="#F4B1B1"></path><path d="M411.823 32.7853C409.872 37.2449 392.724 39.9044 387.95 28.1892C387.95 28.1892 379.042 26.0071 374.949 19.3517C370.857 12.6963 373.38 7.07745 378.946 5.11357C383.844 3.31334 385.358 5.60454 385.358 5.60454C385.358 5.60454 406.052 -6.23336 407.717 4.49983C421.713 7.21382 414.278 27.2346 411.823 32.7853Z" fill="#031542"></path><path d="M392.519 27.4389C393.442 29.8227 393.557 32.4435 392.847 34.899C391.864 38.1176 389.068 37.7221 387.39 35.1581C385.889 32.8533 384.593 28.3391 386.503 25.966C388.413 23.593 391.373 24.5886 392.519 27.4389Z" fill="#F4B1B1"></path><path d="M426.964 42.8916C425.6 38.8001 423.991 34.1223 419.066 35.7588C414.741 37.1226 402.123 44.9782 401.154 47.6786C402.658 49.0766 403.776 50.8378 404.401 52.7928L426.964 42.8916Z" fill="#407BFF"></path><path opacity="0.5" d="M426.964 42.8916C425.6 38.8001 423.991 34.1223 419.066 35.7588C414.741 37.1226 402.123 44.9782 401.154 47.6786C402.658 49.0766 403.776 50.8378 404.401 52.7928L426.964 42.8916Z" fill="#FAFAFA"></path><path d="M445.941 41.9512C452.255 44.7014 458.404 47.8162 464.357 51.2796C470.44 54.7488 476.242 58.6886 481.709 63.063C483.197 64.3294 484.597 65.6965 485.898 67.1544C487.139 68.5182 488.258 69.882 489.39 71.164C491.586 73.8916 493.646 76.6192 495.665 79.3469C499.648 84.8021 503.345 90.4619 506.797 96.3127L501.081 100.622L487.33 86.3159C485.052 83.9429 482.746 81.6244 480.509 79.3741C479.363 78.2695 478.217 77.1648 477.071 76.1555C476.042 75.2162 474.963 74.3329 473.838 73.5097C471.369 71.8323 468.6 70.1411 465.871 68.5455C463.143 66.9498 460.306 65.4087 457.441 63.8949C451.752 60.9218 445.845 57.9759 440.129 55.2892L445.941 41.9512Z" fill="#F4B1B1"></path><path d="M506.495 112.909L503.044 106.758L513.644 103.566C513.644 103.566 515.772 108.531 513.439 112.527L506.495 112.909Z" fill="#F4B1B1"></path><path d="M499.156 97.7436L505.923 95.5479L513.603 103.567L503.044 106.758L499.156 97.7436Z" fill="#F4B1B1"></path><path d="M438.874 38.1571C447.414 34.7885 466.416 49.4494 466.416 49.4494L459.35 70.9022C452.708 69.4522 446.559 66.2984 441.507 61.751C432.189 53.6091 430.129 41.6484 438.874 38.1571Z" fill="#263238"></path><path d="M473.128 119.714L418.984 129.411C416.788 124.842 412.095 108.477 403.146 88.7149C400.731 83.3552 397.989 77.8045 394.961 72.0765C391.504 65.6852 387.72 59.4761 383.625 53.4741C389.271 51.3683 395.043 49.6192 400.909 48.2371C407.729 46.7096 429.106 38.5267 435.381 37.913C443.676 37.122 444.59 40.7361 444.59 40.7361C444.59 40.7361 455.708 52.424 473.128 119.714Z" fill="#263238"></path><path d="M336.015 80.8881L329.03 79.8516L329.835 90.8575C329.835 90.8575 335.292 91.0757 338.143 87.4616L336.015 80.8881Z" fill="#F4B1B1"></path><path d="M319.209 79.0596L321.787 88.5108L329.836 90.8565L329.045 79.8506L319.209 79.0596Z" fill="#F4B1B1"></path><path d="M392.233 65.1209C392.055 66.1983 391.892 66.9893 391.714 67.8485C391.537 68.7077 391.332 69.5942 391.114 70.467C390.691 72.1991 390.241 73.9038 389.75 75.6222C388.731 79.0821 387.487 82.4716 386.026 85.769C384.515 89.2126 382.688 92.509 380.569 95.6157C378.215 99.0559 375.257 102.041 371.838 104.426C369.912 105.72 367.807 106.727 365.59 107.413L364.731 107.644L364.294 107.767L363.626 107.904C362.797 108.046 361.956 108.106 361.116 108.081C359.756 108.053 358.406 107.837 357.105 107.44C355.065 106.805 353.106 105.935 351.266 104.849C349.645 103.905 348.087 102.857 346.601 101.712C341.066 97.4105 336.082 92.4454 331.759 86.9282L336.793 81.8276C341.927 85.5889 347.27 89.0584 352.794 92.2198C354.159 92.9426 355.523 93.5836 356.737 94.1155C357.83 94.6028 358.981 94.951 360.161 95.152C360.463 95.2085 360.773 95.2085 361.075 95.152C361.143 95.152 361.075 95.152 361.075 95.152H361.007L361.17 95.0838C361.282 95.0489 361.391 95.0079 361.498 94.961C362.434 94.5772 363.311 94.0629 364.103 93.4336C366.02 91.8373 367.653 89.9283 368.933 87.7874C370.461 85.3426 371.762 82.7634 372.82 80.0819C373.97 77.266 374.976 74.3938 375.835 71.4762C376.281 70.0033 376.69 68.5168 377.063 67.0166L377.595 64.7799C377.759 64.0707 377.936 63.2388 378.059 62.666L392.233 65.1209Z" fill="#F4B1B1"></path><path d="M400.049 64.4394C406.256 76.0454 387.035 94.0477 387.035 94.0477L368.004 80.8324C370.676 73.2488 374.075 65.9411 378.154 59.0114C385.766 46.5326 395.315 55.6019 400.049 64.4394Z" fill="#263238"></path><path d="M395.344 342.37L384.281 343.529L383.721 337.119L382.207 319.676L393.271 318.503L394.948 337.774L395.344 342.37Z" fill="#F4B1B1"></path><path d="M491.491 340.964H480.768L480.236 338.55L480.168 338.25L476.826 322.771L476.757 322.457L475.475 316.524H486.211L491.491 340.964Z" fill="#F4B1B1"></path><path d="M479.281 340.325H492.309C492.523 340.323 492.731 340.396 492.898 340.53C493.064 340.664 493.179 340.852 493.223 341.061L495.338 350.608C495.382 350.839 495.374 351.078 495.316 351.306C495.258 351.535 495.15 351.747 495 351.929C494.851 352.112 494.663 352.259 494.45 352.36C494.237 352.462 494.005 352.515 493.769 352.517C489.554 352.449 486.484 352.19 481.191 352.19C477.931 352.19 468.095 352.531 463.593 352.531C459.092 352.531 458.505 348.085 460.347 347.676C468.614 345.875 474.834 343.38 477.481 341.007C477.97 340.555 478.616 340.311 479.281 340.325V340.325Z" fill="#263238"></path><path d="M383.108 339.982H396.135C396.349 339.981 396.557 340.053 396.724 340.187C396.89 340.322 397.005 340.509 397.049 340.718L399.164 350.265C399.208 350.497 399.2 350.735 399.142 350.963C399.084 351.192 398.976 351.405 398.826 351.587C398.677 351.769 398.489 351.916 398.276 352.017C398.063 352.119 397.831 352.173 397.595 352.174C393.38 352.106 390.31 351.847 385.017 351.847C381.757 351.847 371.921 352.188 367.42 352.188C362.918 352.188 362.331 347.742 364.173 347.333C372.44 345.533 378.66 343.037 381.307 340.664C381.796 340.213 382.442 339.968 383.108 339.982V339.982Z" fill="#263238"></path><path d="M381.198 332.782L397.022 333.3C391.266 227.523 388.578 222.122 439.926 172.166C441.126 187.277 442.477 202.947 443.8 216.012C444.632 224.1 444.891 231.164 446.228 236.347C455.368 271.383 477.372 333.382 477.372 333.382L492.815 334.078C492.815 334.078 473.484 249.098 471.493 221.399C468.887 185.068 477.372 145.735 472.543 117.3L418.604 126.451C369.684 198.024 360.722 213.489 381.198 332.782Z" fill="#407BFF"></path><path opacity="0.3" d="M381.198 332.782L397.022 333.3C391.266 227.523 388.578 222.122 439.926 172.166C441.126 187.277 442.477 202.947 443.8 216.012C444.632 224.1 444.891 231.164 446.228 236.347C455.368 271.383 477.372 333.382 477.372 333.382L492.815 334.078C492.815 334.078 473.484 249.098 471.493 221.399C468.887 185.068 477.372 145.735 472.543 117.3L418.604 126.451C369.684 198.024 360.722 213.489 381.198 332.782Z" fill="white"></path><path d="M379.424 331.077L380.202 335.51H398.782V331.418L379.424 331.077Z" fill="#407BFF"></path><path d="M475.543 332.782L477.331 336.874H494.246L493.933 332.782H475.543Z" fill="#407BFF"></path><path opacity="0.7" d="M379.424 331.077L380.202 335.51H398.782V331.418L379.424 331.077Z" fill="white"></path><path opacity="0.7" d="M475.543 332.782L477.331 336.874H494.246L493.933 332.782H475.543Z" fill="white"></path><path d="M75.7446 221.672L79.7007 221.986C81.0649 222.081 82.4291 222.136 83.7933 222.177C86.5216 222.286 89.25 222.3 91.9783 222.259C94.7067 222.218 97.435 222.013 100.027 221.754C102.624 221.479 105.202 221.051 107.748 220.472L106.589 220.95C107.08 220.663 107.489 220.499 108.062 220.118C108.635 219.736 109.153 219.449 109.74 219.013C110.886 218.222 112.045 217.335 113.219 216.449C115.551 214.621 117.911 212.739 120.244 210.803L127.283 204.952L134.363 199.074C134.981 198.573 135.76 198.313 136.555 198.344C137.35 198.375 138.106 198.695 138.683 199.243C139.26 199.791 139.617 200.53 139.688 201.322C139.759 202.114 139.539 202.905 139.07 203.547C137.187 206.084 135.209 208.471 133.231 210.898C131.253 213.326 129.138 215.631 127.038 217.949C124.937 220.268 122.713 222.545 120.394 224.768C119.207 225.873 118.02 226.978 116.738 228.082C116.138 228.628 115.374 229.173 114.692 229.705C114.01 230.237 113.068 230.824 112.264 231.355C112.054 231.489 111.829 231.599 111.595 231.683L111.104 231.833C108.068 232.829 104.963 233.604 101.814 234.151C98.7481 234.677 95.656 235.036 92.5513 235.229C89.4819 235.433 86.4125 235.474 83.3567 235.406C81.8289 235.351 80.301 235.27 78.7731 235.16C77.2179 235.065 75.7719 234.929 74.0667 234.697C72.3391 234.516 70.7541 233.656 69.6604 232.307C68.5667 230.958 68.054 229.23 68.2349 227.503C68.4158 225.775 69.2755 224.191 70.625 223.098C71.9746 222.004 73.7033 221.491 75.4309 221.672H75.7446Z" fill="#F4B1B1"></path><path d="M93.5883 241.448L89.141 242.553L83.3433 243.917C83.3433 243.917 82.1155 242.799 80.2603 241.067C75.5811 236.716 66.9323 228.465 64.1221 224.564C72.0752 219.382 75.7721 221.428 91.0509 221.564C94.9115 226.065 93.5883 241.448 93.5883 241.448Z" fill="#FBB44A"></path><path d="M32.7732 179.135C32.7732 179.135 38.7483 168.089 54.832 169.139C70.9156 170.189 76.7543 197.042 71.5158 208.553C59.5091 211.02 47.8686 215.017 36.8794 220.445C36.8794 220.445 24.9974 202.825 25.8023 190.578C26.6072 178.331 32.7732 179.135 32.7732 179.135Z" fill="#031542"></path><path d="M89.0321 289.059L95.5529 300.487C113.028 296.396 169.055 287.872 175.944 307.088C184.497 330.968 122.741 350.007 88.5001 351.18C54.2593 352.353 24.4657 344.197 46.0879 294.35L89.0321 289.059Z" fill="#102958"></path><path d="M166.04 340.855C166 340.878 165.955 340.89 165.91 340.89C165.864 340.89 165.82 340.878 165.78 340.855C165.758 340.823 165.746 340.785 165.746 340.746C165.746 340.707 165.758 340.669 165.78 340.637C165.889 340.255 167.022 336.969 168.168 336.628C168.288 336.6 168.414 336.602 168.533 336.636C168.652 336.669 168.761 336.732 168.85 336.818C169.008 336.951 169.129 337.123 169.201 337.316C169.273 337.51 169.293 337.719 169.259 337.923C169.07 338.541 168.693 339.084 168.181 339.478C167.516 340.008 166.798 340.47 166.04 340.855V340.855ZM166.326 340.214C167.394 339.75 168.261 338.917 168.768 337.869C168.795 337.729 168.782 337.585 168.731 337.453C168.681 337.32 168.594 337.205 168.481 337.119C168.449 337.08 168.406 337.051 168.357 337.037C168.309 337.022 168.257 337.022 168.209 337.037C168.113 337.075 168.025 337.13 167.949 337.2C167.231 338.099 166.681 339.12 166.326 340.214V340.214Z" fill="#263238"></path><path d="M165.972 340.896C165.935 340.909 165.895 340.909 165.858 340.897C165.821 340.884 165.789 340.86 165.767 340.828C165.658 340.732 164.075 338.741 164.334 337.405C164.405 337.068 164.6 336.771 164.88 336.573C165.001 336.458 165.157 336.387 165.323 336.372C165.489 336.357 165.655 336.399 165.794 336.491C166.627 337.077 166.518 339.737 166.108 340.746V340.855C166.068 340.881 166.02 340.895 165.972 340.896V340.896ZM165.085 336.982C164.94 337.105 164.839 337.273 164.798 337.459C164.85 338.459 165.223 339.416 165.863 340.187C166.122 339.055 166.04 337.186 165.549 336.845C165.549 336.845 165.399 336.736 165.153 336.914L165.085 336.982Z" fill="#263238"></path><path d="M105.907 346.448C105.933 346.411 105.968 346.382 106.009 346.363C106.049 346.343 106.094 346.335 106.139 346.339C106.179 346.345 106.216 346.364 106.243 346.394C106.27 346.424 106.287 346.462 106.289 346.502C106.385 346.884 106.985 350.307 106.153 351.167C106.061 351.252 105.949 351.312 105.827 351.34C105.705 351.369 105.577 351.366 105.457 351.33C105.254 351.29 105.064 351.198 104.909 351.061C104.753 350.924 104.636 350.749 104.57 350.553C104.43 349.927 104.492 349.273 104.747 348.684C105.065 347.905 105.454 347.157 105.907 346.448ZM105.907 347.143C105.198 348.067 104.845 349.214 104.911 350.376C104.949 350.514 105.028 350.637 105.138 350.73C105.247 350.822 105.382 350.88 105.525 350.894C105.565 350.923 105.613 350.938 105.662 350.938C105.711 350.938 105.758 350.923 105.798 350.894C105.87 350.82 105.926 350.731 105.962 350.635C106.18 349.481 106.18 348.297 105.962 347.143H105.907Z" fill="#263238"></path><path d="M128.306 329.156L114.228 334.161L107.475 336.575L109.208 343.967L115.742 342.563L131.73 339.167L128.306 329.156Z" fill="#F4B1B1"></path><path d="M111.05 344.307L109.863 335.592C109.848 335.476 109.81 335.363 109.75 335.262C109.691 335.161 109.612 335.072 109.518 335.002C109.423 334.932 109.316 334.882 109.202 334.854C109.088 334.827 108.969 334.823 108.853 334.842L104.556 335.565C104.556 335.565 98.6902 336.11 97.5306 337.61C94.1338 342.002 96.2619 361.368 98.5265 362.05C99.3586 362.295 100.232 361.15 100.586 360.372C101.732 357.877 103.751 351.358 104.679 349.285C105.825 346.871 108.976 345.684 110.395 345.261C110.602 345.21 110.783 345.084 110.903 344.908C111.024 344.732 111.076 344.518 111.05 344.307V344.307Z" fill="#D54A41"></path><path d="M105.948 346.394C105.98 346.371 106.018 346.359 106.057 346.359C106.096 346.359 106.134 346.371 106.166 346.394C106.302 346.394 108.65 347.403 109.073 348.698C109.127 348.861 109.148 349.034 109.134 349.205C109.12 349.376 109.071 349.542 108.991 349.694C108.942 349.852 108.841 349.989 108.705 350.083C108.569 350.177 108.405 350.223 108.24 350.212C107.23 350.09 106.03 347.717 105.893 346.639V346.53C105.893 346.53 105.907 346.407 105.948 346.394ZM108.677 349.367C108.738 349.19 108.738 348.998 108.677 348.821C108.404 348.003 107.094 347.266 106.425 346.939C106.739 348.057 107.722 349.667 108.308 349.667C108.308 349.667 108.499 349.667 108.622 349.421V349.326L108.677 349.367Z" fill="#263238"></path><path opacity="0.2" d="M128.306 329.156L114.228 334.161L115.742 342.563L131.73 339.167L128.306 329.156Z" fill="black"></path><path d="M118.239 343.829L122.291 344.129L119.576 330.204L114.992 332.741L118.239 343.829Z" fill="#407BFF"></path><path opacity="0.6" d="M118.239 343.829L122.291 344.129L119.576 330.204L114.992 332.741L118.239 343.829Z" fill="white"></path><path opacity="0.2" d="M59.5386 289.739L80.6151 313.047C80.6151 313.047 103.915 312.542 132.208 326.358C132.208 326.358 162.575 313.824 165.358 303.405C169.014 289.767 95.5528 300.432 95.5528 300.432L59.5386 289.739Z" fill="black"></path><path d="M96.3986 294.952L93.7794 293.07C93.296 292.718 92.7352 292.487 92.1441 292.397C91.5531 292.307 90.949 292.36 90.3826 292.552L85.0078 294.365C83.9479 294.721 82.9886 295.325 82.2101 296.127C81.4316 296.929 80.8566 297.905 80.5333 298.975L80.124 300.339C84.2165 303.762 91.2421 304.43 91.2421 304.43L93.2065 304.839C93.6088 304.936 94.0263 304.952 94.4349 304.887C94.8435 304.821 95.2349 304.675 95.5865 304.457C95.9381 304.238 96.2428 303.952 96.4829 303.615C96.723 303.278 96.8937 302.897 96.9852 302.494L97.8583 298.607C97.9943 297.922 97.9288 297.212 97.6698 296.563C97.4107 295.915 96.9692 295.355 96.3986 294.952V294.952Z" fill="#F4B1B1"></path><path d="M151.948 303.364V306.828C151.948 307.715 150.898 308.083 150.024 308.083H80.8199C79.9332 308.083 78.8555 307.715 78.8555 306.828V303.364H151.948Z" fill="#263238"></path><path opacity="0.4" d="M151.948 303.364V306.828C151.948 307.715 150.898 308.083 150.024 308.083H80.8199C79.9332 308.083 78.8555 307.715 78.8555 306.828V303.364H151.948Z" fill="white"></path><path opacity="0.2" d="M151.947 303.364V306.828C151.947 307.715 150.897 308.083 150.024 308.083H104.392C103.505 308.083 102.441 307.715 102.441 306.828V303.364H151.947Z" fill="black"></path><path d="M163.515 267.43L155.33 304.784C155.175 305.39 154.823 305.927 154.329 306.309C153.835 306.692 153.227 306.899 152.602 306.898H107.584C107.304 306.892 107.029 306.82 106.781 306.69C106.533 306.559 106.319 306.373 106.155 306.146C105.991 305.918 105.882 305.656 105.837 305.38C105.791 305.103 105.81 304.82 105.892 304.552L114.077 267.484C114.247 266.908 114.612 266.41 115.111 266.076C115.609 265.743 116.209 265.594 116.806 265.657H161.824C163.051 265.657 163.788 266.202 163.515 267.43Z" fill="#263238"></path><path opacity="0.4" d="M163.516 267.43L155.331 304.784C155.176 305.39 154.823 305.927 154.329 306.309C153.835 306.692 153.227 306.899 152.602 306.898H109.14C108.858 306.894 108.582 306.824 108.332 306.694C108.083 306.564 107.867 306.378 107.701 306.151C107.536 305.923 107.426 305.661 107.379 305.383C107.333 305.106 107.352 304.821 107.434 304.552L115.619 267.484C115.788 266.908 116.154 266.41 116.653 266.076C117.151 265.743 117.751 265.594 118.348 265.657H161.824C163.052 265.657 163.788 266.202 163.516 267.43Z" fill="white"></path><path opacity="0.2" d="M141.334 286.412C141.334 289.604 137.91 292.209 135.387 292.209C132.863 292.209 131.39 289.604 132.099 286.412C132.808 283.221 135.318 280.712 137.788 280.616C137.065 283.821 138.606 286.412 141.103 286.412H141.334Z" fill="black"></path><path d="M138.073 345.153L152.806 347.581L159.886 348.753L161.946 341.443L155.548 339.493L139.915 334.733L138.073 345.153Z" fill="#F4B1B1"></path><path d="M160.501 340.243L157.322 348.426C157.281 348.534 157.261 348.649 157.265 348.765C157.269 348.881 157.296 348.995 157.344 349.1C157.392 349.206 157.461 349.3 157.546 349.379C157.631 349.457 157.731 349.518 157.84 349.557L161.933 351.017C161.933 351.017 167.39 353.363 169.081 352.612C174.183 350.417 181.7 332.455 179.995 330.791C179.394 330.164 178.071 330.791 177.375 331.255C175.165 332.878 170.241 337.611 168.386 338.947C166.203 340.502 162.929 340.024 161.442 339.711C161.248 339.681 161.05 339.717 160.879 339.814C160.708 339.91 160.575 340.061 160.501 340.243V340.243Z" fill="#D54A41"></path><path d="M153.012 337.965C153.012 337.965 92.988 304.197 72.1843 305.152C51.3807 306.106 48.4613 324.395 57.0147 335.824C65.5681 347.253 81.3652 350.048 81.3652 350.048C81.3652 350.048 70.6155 334.855 72.1707 330.587C73.7259 326.318 79.8101 332.278 79.8101 332.278C79.8101 332.278 117.611 344.484 150.747 347.28L153.012 337.965Z" fill="#1F3E7A"></path><path d="M153.98 337.038L150.583 334.747L146.204 348.167H151.456L153.98 337.038Z" fill="#407BFF"></path><path opacity="0.6" d="M153.98 337.038L150.583 334.747L146.204 348.167H151.456L153.98 337.038Z" fill="white"></path><path d="M89.0321 289.06L46.0878 294.351C45.85 289.842 45.2754 285.356 44.369 280.932C43.0239 274.65 41.2695 268.463 39.1169 262.411C37.0979 256.601 34.5333 249.987 31.2865 242.281C30.6559 240.914 30.3391 239.424 30.3593 237.919C30.3795 236.414 30.7362 234.932 31.4032 233.583C32.0702 232.233 33.0307 231.05 34.2143 230.12C35.398 229.19 36.7747 228.536 38.2438 228.207C39.9354 227.838 41.7088 227.47 43.5505 227.143C49.989 225.889 56.5075 225.086 63.0582 224.743C65.1999 224.674 67.4235 224.674 69.5653 224.743C77.2729 224.865 83.971 232.925 85.1442 240.44C86.2813 246.215 87.0242 252.061 87.3678 257.938C88.0908 266.462 88.541 274.931 89.0321 289.06Z" fill="url(#paint0_linear_635_921)"></path><path d="M42.2129 205.02C44.6957 211.088 48.188 222.326 44.6275 227.004C44.6275 227.004 50.4662 225.381 64.0397 231.627C67.0545 225.94 64.1352 224.604 64.1352 224.604C56.7959 223.813 55.9501 218.658 56.2093 213.693L42.2129 205.02Z" fill="#F4B1B1"></path><path d="M61.1885 230.388C57.096 231.492 56.5776 237.929 56.5776 237.929C56.5776 237.929 45.6642 232.106 41.9536 227.51C43.121 226.662 44.2413 225.752 45.3095 224.782C45.3095 224.782 58.4738 228.287 61.1885 230.388Z" fill="white"></path><path d="M65.0626 229.243C65.0626 229.243 68.7731 229.761 70.6966 234.698C70.5193 225.438 66.0448 224.415 66.0448 224.415C64.8264 223.912 63.4639 223.883 62.2251 224.333C63.1911 224.7 64.001 225.389 64.5179 226.283C65.0349 227.178 65.2273 228.223 65.0626 229.243Z" fill="white"></path><path d="M35.3106 193.101C38.4618 202.988 39.5805 207.23 45.9648 211.376C55.514 217.608 67.0277 212.276 66.9049 201.829C66.7821 192.405 61.6528 177.799 50.794 175.753C48.4797 175.232 46.068 175.339 43.8089 176.063C41.5499 176.787 39.5257 178.102 37.9463 179.872C36.3668 181.642 35.2895 183.801 34.8261 186.127C34.3626 188.453 34.5299 190.861 35.3106 193.101Z" fill="#F4B1B1"></path><path d="M38.912 198.625C38.912 198.625 45.2009 190.646 41.122 181.523C41.122 181.523 53.686 172.671 62.5668 185.355C62.5668 185.355 60.8207 173.081 47.1789 173.913C33.5371 174.744 22.3782 196.184 40.4399 206.03L38.912 198.625Z" fill="#031542"></path><path d="M34.0698 201.993C34.8026 202.804 35.6884 203.462 36.6763 203.93C37.6641 204.399 38.7347 204.667 39.8266 204.721C42.6368 204.803 43.1961 201.911 41.6955 199.429C40.3313 197.206 37.2347 194.478 34.7519 195.57C32.2691 196.661 32.1872 199.934 34.0698 201.993Z" fill="#F4B1B1"></path><path d="M146.205 196.811L145.66 199.539C145.561 200.051 145.341 200.533 145.018 200.944C144.696 201.354 144.279 201.681 143.804 201.898L139.289 203.944C138.4 204.345 137.427 204.53 136.453 204.482C135.478 204.435 134.529 204.157 133.682 203.671L132.618 203.044C133.205 198.393 137.256 193.797 137.256 193.797L138.266 192.352C138.465 192.051 138.722 191.793 139.022 191.592C139.322 191.391 139.658 191.252 140.012 191.182C140.366 191.113 140.731 191.114 141.084 191.186C141.438 191.258 141.773 191.399 142.072 191.601L144.95 193.565C145.455 193.923 145.844 194.422 146.067 194.999C146.29 195.577 146.338 196.207 146.205 196.811V196.811Z" fill="#F4B1B1"></path><path d="M43.2233 247.366L44.1918 251.212C44.5465 252.575 44.9285 253.844 45.3241 255.167C46.1017 257.785 46.9747 260.39 47.8751 262.954C48.7755 265.518 49.8259 268.041 50.9308 270.428C52.0273 272.796 53.2571 275.1 54.6141 277.329L53.782 276.388C54.2185 276.742 54.505 277.097 55.0507 277.506C55.5963 277.915 56.0329 278.31 56.6331 278.733C57.7517 279.565 58.9522 280.397 60.18 281.215C62.6491 282.838 65.1865 284.475 67.7784 286.057L75.5815 290.858L83.4119 295.685C84.0852 296.109 84.5811 296.764 84.8068 297.527C85.0326 298.29 84.9727 299.108 84.6384 299.83C84.3041 300.552 83.7183 301.128 82.9904 301.449C82.2625 301.771 81.4425 301.816 80.6835 301.577C77.6823 300.595 74.7903 299.49 71.8573 298.386C68.9243 297.281 66.0596 296.04 63.1948 294.785C60.33 293.531 57.4516 292.167 54.6141 290.694C53.2499 289.93 51.763 289.153 50.3033 288.294C49.594 287.898 48.83 287.353 48.107 286.93C47.384 286.507 46.5382 285.757 45.7606 285.157C45.5722 285.005 45.4027 284.831 45.2559 284.639L44.9421 284.216C43.029 281.655 41.3012 278.962 39.7719 276.156C38.2954 273.419 36.9657 270.605 35.7885 267.727C34.6153 264.877 33.5922 261.986 32.6918 259.067C32.2553 257.608 31.8324 256.135 31.4368 254.648C31.0412 253.162 30.7138 251.743 30.3864 250.052C30.0501 248.377 30.382 246.638 31.3113 245.204C32.2405 243.77 33.6934 242.757 35.3599 242.38C37.0264 242.002 38.7744 242.291 40.2308 243.184C41.6872 244.078 42.7366 245.505 43.1551 247.161L43.2233 247.366Z" fill="#F4B1B1"></path><path d="M34.9004 229.625C27.4248 234.521 26.8245 242.213 30.2486 257.092C35.4188 259.915 48.3239 257.024 48.3239 257.024C48.3239 257.024 45.0908 233.948 34.9004 229.625Z" fill="#FBB44A"></path><defs><linearGradient id="paint0_linear_635_921" x1="92.6321" y1="258.798" x2="28.9575" y2="260.667" gradientUnits="userSpaceOnUse"><stop stop-color="#FFD000"></stop><stop offset="1" stop-color="#FF7300"></stop></linearGradient></defs></svg>